<svg
  fill="currentColor"
  xmlns="http://www.w3.org/2000/svg"
  viewBox="0 0 24 24"
>
  <path d="M12 .5C5.37.5 0 5.87 0 12.5c0 5.29 3.438 9.773 8.206 11.363.6.111.793-.261.793-.582v-2.2c-3.338.732-4.042-1.417-4.042-1.417-.546-1.386-1.333-1.755-1.333-1.755-1.091-.747.083-.732.083-.732 1.207.083 1.841 1.241 1.841 1.241 1.072 1.82 2.812 1.297 3.497.992.108-.776.42-1.297.763-1.594-2.665-.307-5.467-1.332-5.467-5.93 0-1.309.467-2.381 1.235-3.221-.123-.307-.534-1.547.117-3.231 0 0 1.005-.325 3.3 1.24.96-.267 1.98-.4 3-.4 1.02 0 2.04.133 3 .4 2.28-1.565 3.285-1.24 3.285-1.24.657 1.684.246 2.924.123 3.231.768.84 1.23 1.912 1.23 3.221 0 4.61-2.807 5.617-5.48 5.91.432.372.82 1.1.82 2.217v3.293c0 .322.187.7.8.578C20.56 22.267 24 17.79 24 12.5 24 5.87 18.63.5 12 .5z" />
</svg>